<svg width="800" height="1000" viewBox="0 0 800 1000" xmlns="http://www.w3.org/2000/svg">
  <!-- Ultra-light India map outline for premium background -->
  <g fill="none" stroke="#E8E8E8" stroke-width="1.5" opacity="0.3">
    <!-- Simplified India outline -->
    <path d="M 400 50 L 450 80 L 480 120 L 490 160 L 500 200 L 510 240 L 520 280 L 530 320 L 540 360 L 545 400 L 550 440 L 555 480 L 560 520 L 565 560 L 568 600 L 565 640 L 560 680 L 550 720 L 535 760 L 515 800 L 490 840 L 460 870 L 430 890 L 400 900 L 370 890 L 340 870 L 310 840 L 285 800 L 265 760 L 250 720 L 240 680 L 235 640 L 232 600 L 235 560 L 240 520 L 245 480 L 250 440 L 255 400 L 260 360 L 270 320 L 280 280 L 290 240 L 300 200 L 310 160 L 320 120 L 350 80 L 400 50 Z"/>
    
    <!-- Kashmir -->
    <path d="M 380 60 L 400 50 L 420 60 L 435 80 L 445 100 L 450 120 L 445 140 L 435 155 L 420 165 L 400 170 L 380 165 L 365 155 L 355 140 L 350 120 L 355 100 L 365 80 L 380 60 Z"/>
    
    <!-- Rajasthan -->
    <path d="M 250 200 L 280 180 L 310 180 L 340 190 L 360 210 L 370 240 L 375 270 L 370 300 L 355 330 L 330 350 L 300 360 L 270 355 L 245 340 L 230 320 L 225 290 L 230 260 L 240 230 L 250 200 Z"/>
    
    <!-- Gujarat -->
    <path d="M 230 350 L 260 340 L 290 345 L 310 360 L 320 385 L 325 410 L 320 440 L 305 470 L 280 490 L 255 495 L 230 485 L 210 465 L 200 440 L 195 410 L 205 380 L 220 365 L 230 350 Z"/>
    
    <!-- Maharashtra -->
    <path d="M 310 380 L 340 370 L 370 375 L 395 390 L 415 410 L 425 435 L 425 460 L 415 485 L 395 505 L 370 515 L 340 515 L 315 505 L 295 485 L 285 460 L 285 435 L 295 410 L 310 390 L 310 380 Z"/>
    
    <!-- Karnataka -->
    <path d="M 330 520 L 360 515 L 390 520 L 410 535 L 420 560 L 420 585 L 410 610 L 390 630 L 365 640 L 340 640 L 315 630 L 295 610 L 285 585 L 285 560 L 295 540 L 315 525 L 330 520 Z"/>
    
    <!-- Tamil Nadu -->
    <path d="M 360 650 L 385 645 L 405 655 L 420 675 L 428 700 L 430 725 L 425 750 L 415 775 L 400 795 L 380 805 L 355 800 L 335 785 L 320 765 L 315 740 L 315 715 L 325 690 L 340 670 L 360 650 Z"/>
    
    <!-- Kerala -->
    <path d="M 310 660 L 330 655 L 345 665 L 355 685 L 360 710 L 360 735 L 355 760 L 345 785 L 330 805 L 315 815 L 295 815 L 280 805 L 270 785 L 265 760 L 265 735 L 270 710 L 280 685 L 295 670 L 310 660 Z"/>
    
    <!-- Andhra Pradesh & Telangana -->
    <path d="M 420 440 L 450 435 L 475 445 L 490 465 L 495 490 L 495 515 L 485 540 L 470 560 L 450 570 L 425 570 L 405 560 L 390 540 L 385 515 L 385 490 L 395 465 L 410 450 L 420 440 Z"/>
    
    <!-- Odisha -->
    <path d="M 490 380 L 515 380 L 535 395 L 545 415 L 545 440 L 535 465 L 515 480 L 490 485 L 470 475 L 455 455 L 450 430 L 455 405 L 470 390 L 490 380 Z"/>
    
    <!-- West Bengal -->
    <path d="M 530 300 L 555 305 L 570 320 L 575 345 L 570 370 L 555 390 L 535 400 L 515 395 L 500 380 L 495 355 L 500 330 L 515 315 L 530 300 Z"/>
    
    <!-- Uttar Pradesh -->
    <path d="M 380 230 L 410 225 L 440 230 L 465 245 L 480 265 L 485 290 L 480 315 L 465 335 L 440 345 L 410 345 L 385 335 L 365 315 L 360 290 L 365 265 L 380 245 L 380 230 Z"/>
    
    <!-- Madhya Pradesh -->
    <path d="M 340 300 L 370 295 L 400 305 L 425 325 L 440 350 L 440 375 L 425 395 L 400 405 L 370 405 L 345 395 L 325 375 L 320 350 L 325 325 L 340 310 L 340 300 Z"/>
  </g>
</svg>
